<?xml version="1.0" encoding="UTF-8" standalone="no"?>
<svg width="51px" height="90px" viewBox="0 0 51 90" version="1.1" xmlns="http://www.w3.org/2000/svg" xmlns:xlink="http://www.w3.org/1999/xlink">
    <!-- Generator: Sketch 3.6 (26304) - http://www.bohemiancoding.com/sketch -->
    <title>Combined Shape</title>
    <desc>Created with Sketch.</desc>
    <defs></defs>
    <g id="Page-1" stroke="none" stroke-width="1" fill="none" fill-rule="evenodd">
        <path d="M22,36.8126509 C13.5178782,35.7438156 6.67084975,30.2096984 4.62560206,23 L2.99686968,23 C1.34174426,23 0,21.6513555 0,19.9996703 L0,16.0003297 C0,14.3432934 1.34739093,13 2.99686968,13 L4.94364748,13 C7.60201761,5.46854316 15.576085,0 25,0 C34.423915,0 42.3979824,5.46854316 45.0563525,13 L47.0031303,13 C48.6582557,13 50,14.3486445 50,16.0003297 L50,19.9996703 C50,21.6567066 48.6526091,23 47.0031303,23 L45.3743979,23 C43.3291503,30.2096984 36.4821218,35.7438156 28,36.8126509 L28,41 L22,41 L22,36.8126509 Z M34,41 L17,41 L4.99903746,41 C2.24058456,41 2.28266491e-09,43.241168 5.09262634e-09,46.0057887 C5.09262634e-09,46.0057887 1.11306857e-08,52.8517124 2.60768847e-08,62.7299578 C4.10230834e-08,72.6082031 -5.09540299e-10,83.5887444 4.7410964e-12,84.7974091 C1.51428914e-09,88.3451536 5.13854921,90 6,90 C6.4707919,90 6.01912848,81.1947708 6.0005829,50.9117116 C6.00019833,50.2837476 6,49.646548 6,49 C7,48 8,48 9,49 L9,90 L42,90 L42,49 C43,48 44,48 45,49 C45,49.646548 44.9998017,50.2837476 44.9994171,50.9117116 C44.9808715,81.1947708 44.5292081,90 45,90 C45.8614508,90 51,88.3451536 51,84.7974091 C51,83.5887444 51,72.6082031 51,62.7299578 C51,52.8517124 51,46.0057887 51,46.0057887 C51,43.241168 48.7594154,41 46.0009625,41 L34,41 Z" id="Combined-Shape" fill="#B1B7BB"></path>
    </g>
</svg>