<?xml version="1.0" encoding="UTF-8" standalone="no"?>
<svg width="35px" height="29px" viewBox="0 0 35 29" version="1.1" xmlns="http://www.w3.org/2000/svg" xmlns:xlink="http://www.w3.org/1999/xlink">
	<style>
		* {
			transition: all 0.1s linear;
		}
		:hover {
			fill: #417A9E;
			cursor: pointer;
		}
	</style>
    <!-- Generator: Sketch 3.7.2 (28276) - http://www.bohemiancoding.com/sketch -->
    <title>Fill 1</title>
    <desc>Created with Sketch.</desc>
    <defs></defs>
    <g id="Welcome" stroke="none" stroke-width="1" fill="none" fill-rule="evenodd">
        <g id="Pledge" transform="translate(-1333.000000, -198.000000)" fill="#FFFFFF">
            <g id="Group-8" transform="translate(1085.000000, 193.000000)">
                <g id="TwitterLogo_white" transform="translate(248.000000, 5.000000)">
                    <path d="M34.40971,3.52720628 C33.1436532,4.10733632 31.7830732,4.49942152 30.3550306,4.67576233 C31.812651,3.77299103 32.9319515,2.34353812 33.4590661,0.640340807 C32.0950878,1.47613901 30.5842273,2.08318834 28.9762004,2.41038117 C27.6883693,0.992762332 25.853663,0.106896861 23.8232397,0.106896861 C19.9243788,0.106896861 16.7634531,3.372713 16.7634531,7.40085202 C16.7634531,7.97252915 16.8260071,8.52925112 16.9463322,9.0630852 C11.0790984,8.75891031 5.87730282,5.85500897 2.39542632,1.44206726 C1.78775932,2.51935874 1.43962202,3.77234081 1.43962202,5.10907175 C1.43962202,7.63961435 2.68604419,9.87222422 4.58028369,11.1802152 C3.42297258,11.1423722 2.33450858,10.8142691 1.38260604,10.2679507 C1.38210258,10.2983812 1.38210258,10.3289417 1.38210258,10.3596323 C1.38210258,13.8937309 3.81553955,16.8418475 7.04506056,17.5118386 C6.452623,17.6785561 5.82897139,17.7676368 5.18505583,17.7676368 C4.73018662,17.7676368 4.28790373,17.721991 3.85694851,17.6368117 C4.75523338,20.5347309 7.36236141,22.6435381 10.4515451,22.7024484 C8.03547721,24.658713 4.9914784,25.8248251 1.68404814,25.8248251 C1.11426593,25.8248251 0.552287236,25.7903632 0,25.723 C3.1241736,27.7925336 6.83499507,29 10.8217084,29 C23.8067516,29 30.9074437,17.8854574 30.9074437,8.24666368 C30.9074437,7.93039462 30.9006471,7.61581614 30.8870539,7.3030583 C32.2662616,6.27466368 33.4632196,4.98995067 34.40971,3.52720628" id="Fill-1"></path>
                </g>
            </g>
        </g>
    </g>
</svg>
