<?xml version="1.0" encoding="UTF-8" standalone="no"?>
<svg width="93px" height="101px" viewBox="0 0 93 101" version="1.1" xmlns="http://www.w3.org/2000/svg" xmlns:xlink="http://www.w3.org/1999/xlink" xmlns:sketch="http://www.bohemiancoding.com/sketch/ns">
    <!-- Generator: Sketch 3.5.2 (25235) - http://www.bohemiancoding.com/sketch -->
    <title>wusb</title>
    <desc>Created with Sketch.</desc>
    <defs></defs>
    <g id="Welcome" stroke="none" stroke-width="1" fill="none" fill-rule="evenodd" sketch:type="MSPage">
        <g id="Home" sketch:type="MSArtboardGroup" transform="translate(-674.000000, -16.000000)" fill="#FFFFFF">
            <g id="wusb-logo" sketch:type="MSLayerGroup" transform="translate(674.000000, 15.000000)">
                <g id="wusb" sketch:type="MSShapeGroup">
                    <g id="Group" transform="translate(46.500000, 51.128221) scale(1, -1) translate(-46.500000, -51.128221) translate(0.000000, 0.628221)">
                        <path d="M46.3099783,98.56072 L46.3838615,96.4193798 L45.8519026,96.1387904 C45.5711465,95.9911118 45.3347203,95.858201 45.3347203,95.858201 C45.3790502,95.6219152 46.117882,91.9299493 46.1622119,91.7231993 C46.4281914,90.5860738 46.4134147,90.4974666 45.955339,90.2611808 L45.5120399,90.024895 L45.8075726,89.1092874 C45.9701156,88.5924122 46.2656484,87.647269 46.4577446,86.997483 C46.6498409,86.347697 46.8419372,85.7569825 46.8862671,85.6683753 C46.9749269,85.4911609 46.8419372,87.8983227 46.7237241,88.7991623 C46.6350643,89.3898769 46.6646176,89.4341804 47.1374699,89.7295377 L47.6398756,90.024895 L47.1522466,92.3434495 C46.5907344,95.0755042 46.5907344,95.1788793 46.930597,95.2970222 C47.5068858,95.5037723 47.5216625,95.5923795 47.1670232,97.2316123 C46.768054,99.0775952 46.3986381,100.524846 46.3099783,100.613453 C46.2656484,100.657757 46.2656484,99.7273812 46.3099783,98.56072 L46.3099783,98.56072 Z" id="Shape"></path>
                        <path d="M59.2986416,93.4067357 C58.1017341,92.077628 57.7766481,91.7970386 57.5254453,91.8708779 C56.6388471,92.1514673 56.7127303,92.2105388 55.1168535,89.7886092 C53.8460628,87.8687869 53.5653067,87.5143582 53.3732104,87.6620368 C53.269774,87.7654119 53.1663375,87.7949476 53.1663375,87.7358762 C53.1663375,87.6768047 53.0776777,87.7063404 52.9594646,87.7949476 C52.7969216,87.9426262 52.5900487,87.6620368 51.8659935,86.3033934 C51.3783645,85.3877859 50.8759589,84.398339 50.7429692,84.1177496 L50.4917664,83.6008744 L50.831629,83.9848389 C51.0237253,84.191589 51.6000141,84.8709107 52.1024197,85.5059288 C52.7673684,86.3181613 53.1220076,86.6282864 53.2845506,86.5839828 C54.2007021,86.2886255 54.0677124,86.1704826 55.6044825,88.5333408 C56.8604966,90.4826987 57.0821462,90.7632881 57.3629023,90.674681 C57.5402219,90.6156095 57.7470948,90.5122345 57.8505313,90.4383951 C57.9687443,90.349788 58.0869574,90.4088594 58.2347238,90.6451452 C59.4759613,92.5649675 60.9684015,95.0459685 60.8797417,95.0312006 C60.8206352,95.0312006 60.1113566,94.2928075 59.2986416,93.4067357 L59.2986416,93.4067357 Z" id="Shape"></path>
                        <path d="M32.6563663,93.7316287 C34.9171917,91.9004136 34.7694253,92.077628 34.5477758,91.427842 C34.4443393,91.1177169 34.414786,90.8371275 34.4886692,90.8075917 C34.5625524,90.778056 35.1831711,90.3940916 35.8628964,89.9510557 C36.5426217,89.5080198 37.4883264,88.9025374 37.9759554,88.6071801 C38.7000106,88.1493763 38.8182237,88.0164656 38.7295638,87.750644 C38.4931377,87.0122509 38.5670208,86.9236437 40.6061967,85.6683753 C41.6996677,84.9890536 42.7340323,84.3540354 42.8965753,84.2654283 C43.0591183,84.1768211 42.4384996,84.8118392 41.5223481,85.697911 L39.8525882,87.2928403 L40.0151312,87.8540191 C40.103791,88.1789121 40.1628976,88.4447336 40.1333443,88.4742693 C40.103791,88.4890372 39.0989797,89.153591 37.9020722,89.9362878 L35.71513,91.3687705 L35.7594599,91.8856458 L35.8037898,92.4172888 L33.8089439,93.5101107 C32.7154729,94.1008253 31.7549915,94.6029326 31.6958849,94.6029326 C31.6220018,94.6029326 32.0653009,94.2042003 32.6563663,93.7316287 L32.6563663,93.7316287 Z" id="Shape"></path>
                        <path d="M42.5271594,90.5417702 C42.6010426,90.3350201 42.7783622,89.9658235 42.9113519,89.7147698 C43.1034482,89.3308054 43.1182248,89.1831268 42.9704585,88.9173052 C42.7635856,88.5333408 42.7635856,88.5628765 43.6945136,87.1746973 C44.2855791,86.2886255 44.3446856,86.1409469 44.167366,85.8751254 C44.004823,85.6093038 44.0639296,85.4320895 44.6993249,84.4131069 C45.0835175,83.7633209 45.4233801,83.2612136 45.4529334,83.2907493 C45.46771,83.320285 45.3199436,83.7780888 45.1130707,84.3097319 C44.7436548,85.2105715 44.7288782,85.3139466 44.9505277,85.6093038 C45.1574006,85.9046611 45.1278474,85.9785004 44.6254417,86.7611972 C43.7092903,88.1346085 43.4876407,88.6367158 43.679737,88.8877695 C43.8127267,89.050216 43.7092903,89.2717339 43.1773314,89.9953592 C42.8079155,90.4974666 42.4680528,90.9109668 42.4384996,90.9109668 C42.4089463,90.9109668 42.4532762,90.7485203 42.5271594,90.5417702 L42.5271594,90.5417702 Z" id="Shape"></path>
                        <path d="M50.9350655,89.6556984 C50.6395327,88.828698 50.5360963,88.6662515 50.1962336,88.5924122 C49.8415944,88.5185729 49.7677112,88.4151979 49.6199448,87.7654119 C49.2800822,86.1557148 49.0288794,85.4763931 48.7333466,85.4025537 C48.5264737,85.3434823 48.4378139,85.1958037 48.4378139,84.9004464 C48.4378139,84.6789284 48.3787074,84.2654283 48.2900475,83.9848389 C48.2161644,83.7042495 48.2013877,83.4088922 48.2457176,83.320285 C48.3048242,83.2316778 48.4525905,83.5270351 48.5855803,83.970071 C48.7628999,84.5903213 48.8958896,84.7823035 49.1618691,84.8561428 C49.5460616,84.94475 49.7086046,85.3877859 50.0632439,87.1156259 C50.2110103,87.8687869 50.2701168,87.9573941 50.5952028,87.9573941 C50.7872991,87.9573941 50.9498421,87.9869298 50.9498421,88.0164656 C50.9498421,88.0460013 51.0532785,88.621948 51.1862683,89.2865018 C51.3044814,89.9510557 51.3783645,90.5270023 51.3488113,90.5565381 C51.3044814,90.6008416 51.1271617,90.1873415 50.9350655,89.6556984 L50.9350655,89.6556984 Z" id="Shape"></path>
                        <path d="M36.0845459,84.5903213 C36.1288758,84.5164819 36.5130684,84.3540354 36.9120376,84.2506604 C37.5326563,84.0882139 37.6508694,83.9996067 37.6508694,83.7337852 C37.6508694,83.3498207 37.9611787,83.2316778 39.7195985,82.892017 C40.5766434,82.7295705 40.6800798,82.6557312 40.7244097,82.3308382 C40.7687397,81.9911773 40.8721761,81.9468737 42.0099771,81.7401236 C42.704479,81.6219807 43.2659912,81.5629093 43.2659912,81.6072129 C43.2659912,81.6662843 42.8965753,81.8287308 42.4384996,81.9911773 C41.9804238,82.1388559 41.566678,82.3751418 41.5371247,82.4932847 C41.3745817,83.0396956 41.1824855,83.1578385 40.0742377,83.4088922 C38.2419348,83.8371602 38.2419348,83.8371602 38.2419348,84.1177496 C38.2419348,84.3244997 38.0793918,84.4131069 37.6213161,84.4869462 C37.2666768,84.5312498 36.7642712,84.619857 36.4835151,84.6641606 C36.1584291,84.723232 36.0106628,84.6936963 36.0845459,84.5903213 L36.0845459,84.5903213 Z" id="Shape"></path>
                        <path d="M56.6684004,83.7928566 C55.707919,83.3498207 55.6340358,83.3350529 55.2793965,83.5565708 C54.9099806,83.7780888 54.8508741,83.7633209 53.5800834,82.9215527 C52.4866123,82.1979274 52.2206328,82.0797845 51.9989833,82.2274631 C51.7773337,82.3603739 51.5852375,82.2865346 50.8907355,81.813963 C50.4474365,81.5038378 50.0632439,81.1937127 50.0632439,81.1346412 C50.0632439,81.0755698 50.4326598,81.1937127 50.8759589,81.4152306 C51.644344,81.7991951 51.6886739,81.7991951 51.96943,81.5481414 C52.2354095,81.2970877 52.294516,81.3266235 53.4618703,82.1388559 C54.570118,82.892017 54.7031077,82.9510884 55.0281937,82.7886419 C55.3385031,82.6114276 55.4862694,82.670499 56.5649639,83.3793565 C58.146064,84.4131069 58.1608406,84.4721784 56.6684004,83.7928566 L56.6684004,83.7928566 Z" id="Shape"></path>
                        <path d="M45.792796,82.9363206 C44.980081,82.6261954 44.0787062,81.8878023 43.7831735,81.3118556 C43.192108,80.1599623 43.3989809,78.5354973 44.2560258,77.5755862 C44.5515586,77.2506932 44.7288782,76.9110323 44.6845483,76.7928894 C44.5515586,76.4532286 44.1230361,74.9616744 42.379393,68.8625468 C41.4780182,65.702224 40.4141004,62.0102582 40.0299078,60.6663826 C38.7147872,56.2360236 35.552587,45.2339654 35.2127244,43.9491613 C35.0206281,43.2550717 34.3409028,40.8331422 33.6907308,38.5588912 C33.0405588,36.2846402 32.0653009,32.7994245 31.5333419,30.8057629 C31.001383,28.8121014 30.4398709,26.7593684 30.2921045,26.2277253 L30.026125,25.2678142 L27.5732034,25.2235106 L25.1202818,25.1939749 L23.7608312,21.0885089 C23.0072228,18.8437936 22.3422741,16.9535071 22.2979442,16.8796678 C22.2388377,16.8205964 21.5591124,18.6665793 20.805504,20.9851338 L19.4165001,25.1939749 L16.7271523,25.1939749 L14.0378045,25.1939749 L12.678354,21.1032767 C11.9247455,18.8437936 11.2597969,16.9535071 11.215467,16.8796678 C11.1563604,16.8205964 10.4766352,18.6665793 9.72302671,20.9851338 L8.33402289,25.1939749 L4.16701145,25.1939749 L0,25.1939749 L2.74845436,16.8944357 C4.25567127,12.316398 6.0584209,6.82275287 6.76769944,4.66664482 L8.0532668,0.753161031 L11.1415838,0.708857441 L14.2299008,0.679321714 L15.3972551,4.17930533 C16.0326504,6.11389543 16.6089392,7.75312826 16.6680458,7.81219971 C16.7271523,7.88603903 17.3034412,6.32064551 17.9536131,4.34175182 L19.1209674,0.753161031 L22.2240611,0.708857441 L25.312378,0.679321714 L29.4350596,13.187702 C31.6958849,20.0842942 33.5872944,25.8142251 33.6611776,25.932368 C33.7202841,26.0505109 35.3604908,27.0104221 37.2962301,28.0589404 C39.2319695,29.1074587 42.1134136,30.6433164 43.679737,31.4998525 L46.5316278,33.0357103 L47.9649615,32.2825493 C48.7481233,31.8690491 51.7034505,30.2888877 54.5257881,28.7677978 C59.6237276,26.0357431 59.6532809,26.0209752 59.7862706,25.4597964 L59.934037,24.8986176 L59.1360986,24.3669745 C57.2594658,23.1117061 56.2694312,21.1918839 56.2694312,18.7699543 C56.2694312,15.993596 57.4663387,13.9851666 60.6580922,11.4155584 C61.6185735,10.6476295 62.5938315,9.80586126 62.8302577,9.55480759 C63.4065465,8.94932519 63.4213232,8.2995392 62.859811,7.81219971 C62.5051717,7.51684244 62.3130754,7.47253885 61.1457212,7.47253885 C60.0226968,7.47253885 57.1855826,7.88603903 56.4910807,8.15186057 C56.2989844,8.22569989 56.2694312,7.73836039 56.2694312,4.54850191 L56.2694312,0.856536074 L57.0378163,0.694089577 C60.259123,-6.41847686e-16 64.0271652,-0.17721436 65.9333513,0.295357267 C69.9082665,1.25526838 72.1543152,4.28268037 71.8883358,8.2995392 C71.6962395,11.0611296 70.4845553,12.9957197 67.1302589,15.8754531 C66.3175439,16.5695427 65.5787121,17.2340965 65.4752756,17.3670073 C64.7807737,18.2383112 66.2288841,18.8437936 68.3567197,18.5779721 L69.2728711,18.4598292 L69.2728711,21.8859735 L69.2728711,25.3121178 L68.8000188,25.400725 C67.6769944,25.5927072 65.5639354,25.7846894 64.3079213,25.7846894 L62.9632474,25.7846894 L62.3278521,28.1918511 C61.3525941,31.883817 55.7226956,51.7318253 52.131973,64.1072948 C49.9007009,71.7718159 48.4378139,76.9553359 48.4378139,77.1325503 C48.4378139,77.2359253 48.4969205,77.3245325 48.556027,77.3245325 C48.6299102,77.3245325 48.8515597,77.5460504 49.043656,77.8266398 L49.3982953,78.3287472 L50.4326598,78.0038542 C51.2749281,77.7380327 51.4670244,77.6198898 51.5409075,77.3245325 C51.6147907,76.9848716 51.7625571,76.9258002 53.0924544,76.6452108 C54.3927984,76.3941571 54.570118,76.3055499 54.6144479,76.0249605 C54.6440012,75.8329783 54.7917675,75.6705318 54.9838638,75.6262282 C55.870462,75.4194781 56.520634,75.2717995 56.84572,75.1684244 C57.5106686,74.9764422 57.0378163,75.3604067 56.2103246,75.7000675 C55.6192592,75.9363533 55.3680564,76.1283356 55.2646199,76.408925 C55.1464068,76.7633537 54.9986404,76.8224251 53.6687432,77.1030145 C52.3979525,77.3688361 52.2058562,77.4574433 52.1615263,77.7232648 C52.1171964,78.0481578 52.0433132,78.0776935 50.2405635,78.2992115 C49.5165084,78.3878187 49.4574018,78.4173544 49.531285,78.7127116 C49.5756149,78.8751581 49.6642747,79.3920334 49.7086046,79.8498371 C49.7972645,80.617766 49.7677112,80.7359089 49.3539654,81.3266235 C48.7333466,82.242231 48.4673672,82.4489811 47.4034494,82.8624813 C46.8862671,83.0692313 46.4577446,83.2316778 46.4577446,83.21691 C46.442968,83.2021421 46.1474353,83.0839992 45.792796,82.9363206 L45.792796,82.9363206 Z M47.3886727,72.2296196 C47.5364391,71.5355301 48.6446868,67.2528497 48.9549962,66.1747957 C49.1470925,65.4807061 49.9450308,62.4385262 49.9745841,62.246544 C49.9745841,62.2022404 49.2357523,61.5524544 48.3048242,60.7992934 L46.6202876,59.4258821 L46.0735521,59.8541502 C45.5415932,60.2528825 43.4728641,61.8921153 43.2068846,62.1284011 C43.1477781,62.1874726 43.2216613,62.7191156 43.3842043,63.324598 C43.5615239,63.9153126 43.9013866,65.2001167 44.1525894,66.1747957 C44.4037922,67.1494746 44.7584315,68.5524217 44.9505277,69.276047 C45.142624,70.0144401 45.4824866,71.2992442 45.7041362,72.1557803 C45.9257857,73.0123164 46.2065418,74.1051383 46.3395316,74.5777099 L46.5759577,75.4490138 L46.9158204,74.134674 C47.1079166,73.4110487 47.3147896,72.5545126 47.3886727,72.2296196 L47.3886727,72.2296196 Z M43.8718333,58.5398103 L44.6993249,57.8752565 L43.2364379,56.7085953 C42.4384996,56.0735771 41.7883276,55.4976305 41.7883276,55.438559 C41.7883276,55.3647197 41.6553378,55.3204161 41.4927948,55.3204161 C41.1824855,55.3204161 41.079049,55.7339163 41.3302518,55.9997378 C41.5075715,56.1769522 42.2316267,58.5988818 42.2316267,58.9828462 C42.2316267,59.1452927 42.2759566,59.3963464 42.3202865,59.5292572 C42.4089463,59.7360072 42.4532762,59.7360072 42.7340323,59.4849536 C42.8965753,59.3225071 43.4137576,58.9090069 43.8718333,58.5398103 L43.8718333,58.5398103 Z M50.8020757,59.3815785 C50.8020757,59.2634356 51.0089486,58.4512031 51.2601515,57.5798992 C51.9103235,55.335184 51.9103235,55.3204161 51.644344,55.3204161 C51.5113543,55.3204161 51.319258,55.438559 51.2158215,55.5862376 C51.1123851,55.7339163 50.506543,56.2655594 49.8859243,56.7824346 C49.2505289,57.2845419 48.7333466,57.7866493 48.7333466,57.8900243 C48.7333466,58.0967744 50.4474365,59.6030965 50.669086,59.6030965 C50.7429692,59.6030965 50.8020757,59.4997214 50.8020757,59.3815785 L50.8020757,59.3815785 Z M48.4969205,54.8626123 C48.8220065,54.5820229 49.8859243,53.7254869 50.8464056,52.9723258 C51.7921104,52.2043969 52.5752721,51.5693788 52.5752721,51.5398431 C52.5752721,51.5103074 52.2501861,51.3183251 51.8364403,51.1115751 C51.4374711,50.904825 50.0927972,50.1368961 48.8663364,49.3985029 C46.9158204,48.2318417 46.5759577,48.0841631 46.3099783,48.2170738 C45.7189128,48.527199 44.817538,49.0440742 44.4481221,49.28036 C44.2412492,49.4132708 43.5763006,49.8120031 42.9704585,50.1664318 C42.3646164,50.5208605 41.5814547,50.9786643 41.241592,51.2001822 L40.6061967,51.5841467 L42.2020734,52.8394151 C43.0738949,53.5335046 44.4037922,54.6115587 45.1721773,55.2170411 L46.5759577,56.3393987 L47.2261297,55.866827 C47.5955456,55.6010055 48.1570578,55.1579696 48.4969205,54.8626123 L48.4969205,54.8626123 Z M42.6453725,47.5968236 C43.4728641,47.1094841 44.1525894,46.6959839 44.1525894,46.681216 C44.1525894,46.6516803 43.1773314,46.0609658 41.9804238,45.3521083 C40.7687397,44.628483 39.5570555,43.9048577 39.2762994,43.7276434 C38.2123816,43.0630895 38.0646152,43.0040181 38.1384984,43.3141432 C38.1828283,43.4618218 38.3897012,44.2740543 38.6113507,45.1305904 C38.8330003,45.9871265 39.1876396,47.2571627 39.3945125,47.980788 L39.7639284,49.2655921 L40.4436537,48.8816277 C40.8130696,48.6601097 41.8031042,48.0841631 42.6453725,47.5968236 L42.6453725,47.5968236 Z M53.4618703,49.2212885 C53.4618703,49.1622171 54.1711488,46.3858588 54.6144479,44.7170902 L55.0725236,43.0483217 L54.4519049,43.4027504 C54.1120423,43.5947326 53.2402207,44.1116078 52.5013889,44.5398759 C51.7773337,44.9681439 50.8020757,45.5293227 50.3587766,45.7803764 C49.9154775,46.0166622 49.4574018,46.3120195 49.3539654,46.4153945 C49.2505289,46.5187695 49.0732093,46.6073767 48.9845495,46.6073767 C48.8220065,46.6073767 49.9450308,47.3162342 52.3240693,48.6896455 C53.1663375,49.1917528 53.4618703,49.3246636 53.4618703,49.2212885 L53.4618703,49.2212885 Z M47.4773326,44.7318581 C48.6151335,44.0820721 48.3343775,44.2445186 51.1714916,42.5609822 C52.3979525,41.8373569 53.7721796,41.0103565 54.245032,40.7297671 C54.7178844,40.4491777 55.0873003,40.2128919 55.057747,40.1833562 C55.0134171,40.1538204 53.6982964,39.444963 51.8364403,38.4407483 C51.3931412,38.2044625 50.4917664,37.7318909 49.8415944,37.3774621 C49.1914224,37.0378013 48.1866111,36.4913903 47.5955456,36.1960331 L46.5316278,35.6348543 L44.492452,36.7572119 C41.0199425,38.6474984 39.8969181,39.2382129 38.4931377,39.8879989 C37.9611787,40.1390526 37.9464021,40.1538204 38.1828283,40.419642 C38.315818,40.5820885 38.5226909,40.7002314 38.6261274,40.7002314 C38.9364367,40.7002314 43.0000117,43.122161 44.9505277,44.4660365 C45.6006997,44.9090724 46.2065418,45.278269 46.3099783,45.278269 C46.4134147,45.278269 46.9453736,45.0272154 47.4773326,44.7318581 L47.4773326,44.7318581 Z M39.2762994,36.8310512 C39.9708013,36.4618546 41.3154752,35.7382293 42.2611799,35.2213541 L43.9900464,34.2909787 L43.0738949,33.7297999 C42.5714893,33.4344426 41.4927948,32.8437281 40.6800798,32.4449958 C38.1384984,31.1601917 36.2323123,30.1264412 35.8037898,29.8015482 C35.5821403,29.6243339 35.2718309,29.4766552 35.1240646,29.4766552 C34.9762982,29.4766552 34.8137552,29.4175838 34.7694253,29.3289766 C34.7250954,29.2551373 34.6216589,29.181298 34.5625524,29.181298 C34.4591159,29.181298 34.6807655,30.1116734 35.5821403,33.5378177 C35.9811095,35.0589076 36.5721749,37.3183907 36.6756114,37.7909623 L36.7790478,38.2044625 L37.3996666,37.8352659 C37.7395292,37.6432837 38.5817975,37.1854799 39.2762994,36.8310512 L39.2762994,36.8310512 Z M56.4024209,37.7909623 C56.4763041,37.6432837 56.7127303,36.8310512 56.9343798,35.9745151 C57.7175415,32.8732638 58.3233836,30.5694771 58.47115,30.0673698 C58.5598098,29.7867804 58.633693,29.4766552 58.633693,29.3732802 C58.633693,29.2108337 57.3185724,29.831084 54.7178844,31.2487988 C54.2302554,31.5146204 53.5062002,31.9133527 53.0924544,32.1348706 C48.7037934,34.4681931 49.0141027,34.2171394 49.8268177,34.7044789 C50.181457,34.911229 50.5213196,35.0884433 50.5656495,35.0884433 C50.6247561,35.0884433 51.6295674,35.6200864 52.8116983,36.2698724 C53.9938292,36.9196584 55.0134171,37.4513015 55.0725236,37.4513015 C55.1168535,37.4513015 55.3237264,37.5842122 55.5305994,37.7466587 C55.9886751,38.1010874 56.2251013,38.1158553 56.4024209,37.7909623 L56.4024209,37.7909623 Z M65.7708083,22.2847058 C66.2879906,22.2108665 66.3323205,22.1665629 66.2879906,21.7678306 L66.2436607,21.3247947 L64.5443475,21.3100268 C63.0962372,21.2804911 62.7563745,21.2361875 62.2244156,20.9408302 C61.4855838,20.5568658 61.1752744,20.1285977 60.9684015,19.2572938 C60.6433155,17.7657396 61.5446903,16.3037211 64.322698,13.8227201 C66.3470972,12.0358086 67.2336953,10.9872903 67.8099842,9.76155767 C68.7556889,7.78266398 68.061187,5.34596653 66.2436607,4.29744823 C65.0910831,3.61812652 64.1158251,3.44091216 62.0323193,3.5442872 C59.4759613,3.66243011 59.3725248,3.69196584 59.3725248,4.32698396 C59.3725248,4.71094841 59.4316313,4.82909132 59.5793977,4.77001986 C59.6976108,4.72571627 60.4659959,4.60757336 61.2934875,4.51896618 C65.1058597,4.10546601 67.2041421,5.33119867 67.2041421,7.98941407 C67.2041421,9.58434331 66.4653102,10.6623973 63.7611858,13.0843269 C60.8501884,15.6834709 59.9635903,16.9830429 59.9635903,18.696115 C59.9635903,20.6307051 61.0275081,21.826902 63.1257904,22.2404022 C63.8941755,22.3880808 65.0467532,22.4176166 65.7708083,22.2847058 L65.7708083,22.2847058 Z M8.49656589,13.8227201 C10.0185594,9.20037887 11.3189034,5.49364517 11.3632333,5.59702021 C11.4223399,5.70039525 12.6044708,9.39236109 14.0082512,13.8227201 C15.4120317,18.2530791 16.5941626,21.9450449 16.6532692,22.04842 C16.6975991,22.1370272 17.6728571,19.2868295 18.8106581,15.6982387 C19.9484591,12.1096479 21.1453666,8.31430707 21.4852292,7.2510209 L22.0910713,5.33119867 L24.8838556,13.7784165 L27.6766399,22.2404022 L28.1642689,22.2404022 C28.4154717,22.2404022 28.6371212,22.1813307 28.6371212,22.1222593 C28.6371212,22.0631878 27.2776707,17.8691147 25.6079108,12.8185054 C23.9381509,7.76789612 22.5787003,3.60335866 22.5787003,3.55905507 C22.5787003,3.35230498 21.6921021,3.51475148 21.5738891,3.75103729 C21.5000059,3.88394806 20.3917581,7.33962808 19.1061908,11.4155584 C17.8058468,15.4914887 16.7271523,18.79949 16.6828224,18.7699543 C16.6532692,18.7256507 15.8701074,16.318489 14.9391793,13.4092199 C14.0230279,10.5147187 12.9295568,7.08857441 12.515811,5.8037703 L11.7769792,3.47044789 L11.3189034,3.51475148 L10.8460511,3.55905507 L7.77251071,12.862809 C6.08797417,17.9872576 4.69897036,22.1813307 4.69897036,22.2108665 C4.69897036,22.2256343 4.93539654,22.2404022 5.21615263,22.2404022 L5.71855826,22.2404022 L8.49656589,13.8227201 L8.49656589,13.8227201 Z" id="Shape"></path>
                        <path d="M34.1783598,81.0903376 C33.2917617,80.9131233 32.2573971,80.6916053 31.9027579,80.6029982 C31.2821391,80.4553195 30.8536167,80.4996231 30.8536167,80.7063732 C30.8536167,80.7654447 30.7649569,80.9278912 30.676297,81.0608019 C30.4694241,81.3266235 30.2182213,81.267552 27.1594576,80.2781052 C25.9034435,79.8793729 25.8295603,79.8350693 26.494509,79.8941407 C26.9082548,79.9384443 27.8687361,80.0122836 28.6371212,80.0713551 L30.0409017,80.1599623 L30.2625512,79.6726228 C30.4103176,79.3624976 30.5728606,79.2000511 30.7058503,79.2295869 C31.0161597,79.318194 35.4934805,80.2633373 35.5969169,80.2781052 C35.6412468,80.2781052 35.7890132,80.0418194 35.9220029,79.7612299 C36.1288758,79.3329619 36.2175357,79.2591226 36.4391852,79.3624976 C36.5721749,79.436337 36.9563675,79.539712 37.2814535,79.5987835 C37.6065395,79.6578549 38.5670208,79.8793729 39.4240657,80.0861229 C40.2811107,80.292873 41.1233789,80.4553195 41.3154752,80.4553195 C41.5223481,80.4553195 41.6110079,80.514391 41.5371247,80.5882303 C41.4632416,80.6620696 40.6505266,80.6620696 39.6309387,80.5734624 C37.015474,80.3667123 37.0893572,80.3519445 36.7494946,80.942659 C36.3800787,81.5481414 36.3948553,81.5481414 34.1783598,81.0903376 L34.1783598,81.0903376 Z" id="Shape"></path>
                        <path d="M59.8897071,81.0755698 C57.4811154,80.5882303 57.5697752,80.6029982 57.2003593,80.4996231 C56.9343798,80.4110159 56.8161667,80.4848553 56.6092938,80.839284 C56.2989844,81.3709271 56.3728676,81.3709271 54.1268189,80.6473017 C53.3141039,80.3814802 52.4127291,80.1008908 52.131973,80.0122836 C51.6295674,79.8498371 51.6295674,79.8498371 52.3536225,79.9089086 C52.7673684,79.9384443 53.6982964,80.0122836 54.4519049,80.0713551 L55.8113554,80.1747301 L56.0625583,79.643087 C56.2103246,79.3477298 56.3728676,79.1409797 56.4467508,79.1852833 C56.7718368,79.3920334 61.3821473,80.2485694 61.5003604,80.1304265 C61.559467,80.0713551 61.7072333,79.8498371 61.7958932,79.6578549 C61.8993296,79.4806405 62.0766493,79.3477298 62.1948623,79.3772655 C62.3130754,79.4068012 62.8007044,79.5101763 63.2883334,79.6283192 C64.2044849,79.8350693 65.8446915,80.2190337 66.4800869,80.3667123 C66.6721832,80.4110159 66.9529392,80.4700874 67.1007056,80.4700874 C67.2336953,80.4848553 67.3519084,80.5439267 67.3519084,80.617766 C67.3519084,80.6916053 66.9677159,80.7063732 66.5096402,80.6620696 C66.0367878,80.617766 65.0171999,80.5439267 64.2488148,80.4848553 L62.8302577,80.3962481 L62.5495016,80.9278912 C62.209639,81.5481414 62.2835222,81.5481414 59.8897071,81.0755698 L59.8897071,81.0755698 Z" id="Shape"></path>
                        <path d="M42.7488089,78.6684081 C42.6601491,78.6093366 42.2907332,78.4321222 41.891764,78.2844436 C41.241592,78.0333899 41.1677088,78.0333899 40.916506,78.2696757 C40.6653032,78.4911937 40.5766434,78.461658 39.4092891,77.6937291 C38.1828283,76.8962645 37.7247526,76.733818 37.6213161,77.0439431 C37.5917628,77.1473181 37.1336871,76.8962645 36.5721749,76.4975321 C36.040216,76.1135677 35.6116936,75.759139 35.6412468,75.7296033 C35.6708001,75.7148354 36.0697693,75.862514 36.527845,76.0987998 C37.2962301,76.4679964 37.3701133,76.4827643 37.5917628,76.2612463 C37.8134124,76.0397284 37.9316255,76.084032 39.0842031,76.8224251 C40.3697705,77.6494255 40.59142,77.7232648 40.8573995,77.4574433 C40.9756126,77.3393004 41.3006986,77.4722111 42.0690837,77.9743185 C42.6453725,78.3435151 43.1182248,78.6831759 43.1182248,78.7274795 C43.1182248,78.8456224 42.8965753,78.8160867 42.7488089,78.6684081 L42.7488089,78.6684081 Z" id="Shape"></path>
                        <path d="M41.1529322,75.2422638 L39.6013854,73.6030309 L39.0398732,73.7654774 C38.7295638,73.8540846 38.4340311,73.8688525 38.3749246,73.809781 C38.315818,73.7507096 37.665646,72.7760306 36.9120376,71.6389051 C36.1584291,70.5017796 35.4639272,69.5271006 35.390044,69.4680292 C35.3013842,69.4237256 35.0797347,69.4532613 34.8876384,69.5418685 C34.6807655,69.6304757 34.4886692,69.6452436 34.414786,69.5566364 C34.2670197,69.3941899 32.1539607,65.3625632 32.2130672,65.3625632 C32.2426205,65.3625632 32.8336859,66.0566528 33.5134112,66.898421 C34.3556795,67.9321714 34.8433085,68.4195109 34.9910748,68.3752073 C35.9220029,68.0503143 35.8628964,68.0060107 37.34056,70.3097974 C38.803447,72.5692805 38.803447,72.5692805 39.5866087,72.2443875 C39.7639284,72.1705482 40.0003546,72.4511376 40.6061967,73.4405844 C41.0347191,74.1494419 41.7144444,75.2274959 42.1134136,75.8182104 C42.4976061,76.3941571 42.7931388,76.8814966 42.7635856,76.8814966 C42.7340323,76.8814966 42.0099771,76.1431034 41.1529322,75.2422638 L41.1529322,75.2422638 Z" id="Shape"></path>
                        <path d="M50.2110103,76.0987998 C50.3292234,75.9806569 51.0089486,75.4194781 51.7182272,74.8287636 C52.9151347,73.8393167 52.9890179,73.7359417 52.8708048,73.3962808 C52.5900487,72.6578877 52.4718356,72.7612627 55.7522489,70.678994 C57.0673695,69.8372258 57.0821462,69.80769 56.7718368,69.0102254 C56.7275069,68.8625468 56.9491564,68.6410288 57.4811154,68.3161359 C60.5398791,66.4258493 61.2934875,65.9828134 61.2934875,66.1009563 C61.2934875,66.1895635 61.2491576,66.248635 61.1900511,66.248635 C61.1161679,66.248635 60.4068893,66.8688852 59.608951,67.6220463 L58.1312873,68.9954576 L58.2938303,69.6157078 L58.4563733,70.2359581 L56.9491564,71.1811013 C54.5553414,72.7169591 53.8756161,73.2042986 53.9494993,73.3962808 C54.245032,74.1789776 54.3041385,74.1199061 52.2206328,75.2274959 C50.2553402,76.2760142 49.7972645,76.4827643 50.2110103,76.0987998 L50.2110103,76.0987998 Z" id="Shape"></path>
                        <path d="M74.2230443,66.0861885 C71.9474423,65.8203669 69.84916,64.4174199 68.873902,62.4975977 L68.5783692,61.9068832 L67.0415991,61.6558295 C63.34744,61.0355792 61.2934875,59.8984537 61.8697763,58.8056319 C62.2982988,58.0229351 64.5739008,57.1368633 67.2041421,56.7233631 C68.061187,56.5904524 69.0955515,56.413238 69.4945207,56.3246308 C70.4845553,56.088345 79.719953,56.1031129 80.7247643,56.3246308 C81.1385101,56.413238 82.158098,56.5904524 83.0151429,56.7233631 C84.758786,57.0039525 86.8866217,57.6537385 87.6550068,58.1558459 C89.5020863,59.3668107 88.0835292,60.6368469 83.9017411,61.5229187 C83.133356,61.6853652 82.320641,61.818276 82.0989915,61.818276 C81.7739055,61.818276 81.6261391,61.9364189 81.3749363,62.4385262 C80.9020839,63.3689016 80.370125,63.9891519 79.4244203,64.6980093 C77.97631,65.8055991 76.1144538,66.2929386 74.2230443,66.0861885 L74.2230443,66.0861885 Z M77.119265,64.6389379 C78.8333549,63.9891519 80.4587849,62.246544 80.6065512,60.8879006 C80.6804344,60.2971861 80.6361045,60.193811 80.3257951,59.9870609 C79.55741,59.4849536 77.9024268,59.2486678 75.1096425,59.2486678 C72.3464115,59.2486678 70.661875,59.4849536 69.9230431,59.9722931 C68.9477851,60.6073112 70.1890226,62.999705 72.0952087,64.1368305 C73.705862,65.0967416 75.4347285,65.273956 77.119265,64.6389379 L77.119265,64.6389379 Z" id="Shape"></path>
                        <path d="M34.1340299,16.3037211 C34.1931365,6.42402056 34.1635832,6.70460996 35.2127244,4.57803764 C36.1436525,2.6582154 38.2123816,1.07805402 40.5470901,0.457803764 C42.6010426,-0.0886071801 45.1869539,-0.13291077 47.4330026,0.324892994 C51.1419384,1.07805402 53.59486,3.48521575 54.2745853,7.08857441 C54.4519049,8.0189498 54.4962348,9.83539699 54.4962348,16.7172213 L54.4962348,25.1939749 L50.5804262,25.1939749 L46.6793942,25.1939749 L46.6350643,16.968275 L46.5907344,8.72780724 L46.2508717,8.19616416 C45.8666792,7.56114603 45.2460605,7.26578877 44.3003557,7.26578877 C43.354651,7.26578877 42.7340323,7.56114603 42.3498397,8.19616416 L42.0099771,8.72780724 L41.9656472,16.968275 L41.9213173,25.1939749 L38.0055087,25.1939749 L34.0897,25.1939749 L34.1340299,16.3037211 L34.1340299,16.3037211 Z M38.8330003,15.4471851 C38.8330003,11.2235761 38.8921068,8.38814638 38.9955433,7.93034262 C39.3206293,6.40925269 40.4879836,5.18352004 42.0690837,4.71094841 C43.1625547,4.38605541 45.4381567,4.38605541 46.5316278,4.71094841 C47.5364391,5.00630568 48.4525905,5.65609166 48.9549962,6.42402056 C49.7233813,7.5759139 49.7677112,8.0189498 49.7677112,15.4176493 L49.7677112,22.2404022 L50.2848935,22.2404022 L50.8168524,22.2404022 L50.7725225,15.0484528 C50.7281925,7.8565033 50.7281925,7.84173544 50.3735533,6.95566364 C49.9007009,5.75946671 48.5412504,4.40082328 47.3295662,3.91348379 C46.5464045,3.60335866 46.2065418,3.57382293 44.3003557,3.57382293 C42.4089463,3.57382293 42.054307,3.60335866 41.3154752,3.89871592 C40.2072275,4.34175182 38.9512134,5.49364517 38.4931377,6.48309201 C37.8429657,7.8565033 37.7986357,8.44721784 37.7986357,15.5210244 L37.7986357,22.2404022 L38.315818,22.2404022 L38.8330003,22.2404022 L38.8330003,15.4471851 L38.8330003,15.4471851 Z" id="Shape"></path>
                        <path d="M73.5580957,12.9514162 L73.5580957,0.679321714 L79.4391969,0.679321714 C85.9852468,0.679321714 86.5763123,0.753161031 88.4381685,1.62446497 C90.7433237,2.73205472 92.1175509,4.63710909 92.4869668,7.28055663 C92.8120528,9.59911118 92.0288911,11.9324336 90.4625677,13.3649163 L89.635076,14.1180774 L90.1670349,14.7383276 C91.0536331,15.7720781 91.3491658,16.746757 91.3491658,18.6222757 C91.3491658,20.6011694 91.0388565,21.5315448 89.9897153,22.698206 C89.1031171,23.6876528 88.2608488,24.2192959 86.7831852,24.7066354 L85.6010543,25.1053677 L79.5869633,25.1644391 L73.5580957,25.2087427 L73.5580957,12.9514162 L73.5580957,12.9514162 Z M85.5567244,21.6792234 C87.359474,20.7931516 88.1426357,19.4049724 88.009646,17.3079358 C87.9062096,15.668703 87.0639413,14.3838989 85.6453842,13.6602736 L85.0395421,13.3501485 L85.8670338,13.0252555 C88.3642853,12.0062729 89.4429797,9.64341477 88.6302647,6.92612791 C88.3790619,6.0843597 87.5072404,4.97676995 86.709302,4.48943046 C85.4976178,3.75103729 84.596243,3.60335866 80.7690942,3.52951934 L77.2522548,3.45568002 L77.2522548,12.862809 L77.2522548,22.2699379 L80.9168606,22.2108665 L84.5814664,22.1665629 L85.5567244,21.6792234 L85.5567244,21.6792234 Z" id="Shape"></path>
                        <path d="M78.1388529,17.5885252 L78.1388529,13.7931844 L81.2123933,13.8522558 C84.1972738,13.8965594 84.2859337,13.9113273 85.083872,14.2952917 C86.3546628,14.915542 87.0048348,16.0378996 87.0048348,17.5885252 C87.0048348,19.1391509 86.3546628,20.2615085 85.083872,20.8817588 C84.2859337,21.2657232 84.1972738,21.2804911 81.2123933,21.3247947 L78.1388529,21.3838661 L78.1388529,17.5885252 L78.1388529,17.5885252 Z M83.4288888,18.9471687 C83.7687514,18.6075078 83.8278579,18.4155256 83.8278579,17.7362039 C83.8278579,17.0568822 83.7687514,16.8648999 83.4288888,16.5252391 C83.0890261,16.1855782 82.8673766,16.1117389 82.0546616,16.0674353 L81.0941802,16.0083639 L81.0941802,17.7362039 L81.0941802,19.4640439 L82.0546616,19.4049724 C82.8673766,19.3606689 83.0890261,19.2868295 83.4288888,18.9471687 L83.4288888,18.9471687 Z" id="Shape"></path>
                        <path d="M78.2422894,12.8332733 C78.1831829,12.7889697 78.1388529,10.8839153 78.1388529,8.6244322 L78.1388529,4.51896618 L81.0794036,4.51896618 C83.5914318,4.51896618 84.1529439,4.56326977 84.9656589,4.81432345 C86.9013983,5.40503799 87.7288899,6.42402056 87.8618797,8.31430707 C87.9800928,10.1898257 87.3151441,11.4450941 85.7635973,12.1982551 C85.2611917,12.4493088 84.4189234,12.7003625 83.8278579,12.7889697 C82.6605037,12.9514162 78.3900558,12.9957197 78.2422894,12.8332733 L78.2422894,12.8332733 Z M83.2367925,10.5590223 C83.5471018,10.4704151 84.0347308,10.1750578 84.3007103,9.90923631 C84.7292328,9.48096827 84.7883393,9.31852177 84.7883393,8.66873579 C84.7883393,7.132878 83.9608477,6.45355628 82.0989915,6.43878842 L81.0941802,6.43878842 L81.0941802,8.58012861 L81.0941802,10.7214688 L81.8773419,10.7214688 C82.2910878,10.7214688 82.9117065,10.6476295 83.2367925,10.5590223 L83.2367925,10.5590223 Z" id="Shape"></path>
                    </g>
                </g>
            </g>
        </g>
    </g>
</svg>